<svg width="114" height="39" viewBox="0 0 114 39" fill="none" xmlns="http://www.w3.org/2000/svg">
<g clip-path="url(#clip0_64_6364)">
<path d="M15.9928 26.3883L29.8274 12.5458L32.9703 15.6934L34.8561 2.4798L21.65 4.3666L24.7958 7.51428L10.9611 21.3569C8.41092 23.9085 4.89088 24.8969 1.58936 24.3248C2.42746 26.9214 3.87019 29.3623 5.93253 31.4258C7.99187 33.4863 10.4343 34.9329 13.0295 35.7715C12.4578 32.4651 13.4455 28.946 15.9958 26.3943" fill="#00AE84"/>
<mask id="mask0_64_6364" style="mask-type:luminance" maskUnits="userSpaceOnUse" x="0" y="1" width="37" height="36">
<path d="M35.0836 15.9959L34.4789 20.2248L31.4618 17.2059L29.8275 15.5706L17.5014 27.9038C15.5438 29.8625 14.6548 32.6687 15.1277 35.4091L15.2894 36.3465C20.8448 37.3648 26.7864 35.7265 31.0816 31.4288C35.9486 26.559 37.4003 19.5719 35.4487 13.4323L35.0836 15.9989V15.9959ZM5.92955 6.2564C1.63727 10.5511 -2.56896e-05 16.4991 1.01767 22.0577L1.95455 22.2194C4.69335 22.6926 7.49501 21.8061 9.45557 19.8474L21.7817 7.51428L20.1474 5.87904L17.1302 2.86015L21.3566 2.25518L23.9218 1.88979C22.1618 1.32974 20.336 1.04822 18.5071 1.04822C13.9574 1.04822 9.40768 2.78228 5.93554 6.2564" fill="white"/>
</mask>
<g mask="url(#mask0_64_6364)">
<path d="M37.4034 1.04523H0V37.3558H37.4034V1.04523Z" fill="url(#paint0_radial_64_6364)"/>
</g>
<path d="M63.8396 8.73921L63.8276 20.7399H51.3219V13.9234C51.3219 13.9234 50.9777 13.9174 52.4653 13.9174V13.9234C52.5671 13.9234 54.3451 13.9234 54.4439 13.9234C56.8953 13.9414 58.5296 14.181 59.5323 15.5437C59.5323 11.0663 57.8082 8.73022 55.1113 8.73022L52.8993 8.74819H50.9897C47.8827 8.74819 46.1167 11.2879 46.1167 14.4475V27.0862H68.8113V14.4386C68.8113 11.2789 66.9406 8.73921 63.8336 8.73921" fill="#286456"/>
<path d="M75.8812 8.82307V4.24682C75.8812 1.6562 73.6692 -0.00299072 69.3799 -0.00299072C70.5173 0.83559 70.8316 1.7161 70.9034 3.45017L70.8885 27.0802H75.8842L75.8722 8.81109L75.8812 8.82008V8.82307Z" fill="#286456"/>
<path d="M109.13 11.1352H103.317H99.6626C99.6656 9.1136 100.821 8.87999 102.297 8.85304H106.424C109.121 8.85304 110.845 6.54395 110.845 2.06952C109.92 3.32739 108.948 3.62089 106.918 3.67181H99.3303C96.2234 3.67181 94.4573 6.21151 94.4573 9.37116V16.3164H100.15V16.3224H105.434C108.112 16.3224 108.795 17.0891 108.795 19.9133V20.7459H91.8173V14.4566C91.8173 11.2969 90.0513 8.7572 86.9443 8.7572L83.6907 8.74822L82.3707 8.73923C79.6738 8.73923 77.9497 11.0783 77.9497 15.5527C78.9854 14.1451 80.6915 13.9354 83.2687 13.9294V13.9354H83.2537C85.9326 13.9354 86.6151 14.7021 86.6151 17.5264V20.7429H77.9497V27.0892H113.994V16.8375C113.994 13.6779 112.228 11.1382 109.121 11.1382" fill="#286456"/>
<path d="M50.6004 31.9559H49.6546L46.8409 34.6005V31.9559H46.1226V39H46.8409V35.7176L49.927 39H50.8638L47.2211 35.1156L50.6004 31.9559ZM61.7622 39H62.4656V31.9559H61.7622V39ZM77.7759 32.2105C77.3 32.0398 76.5367 31.9559 75.4831 31.9559H74.0224V39H76.2614C77.1384 39 77.8208 38.8712 78.3057 38.6167C78.7906 38.3621 79.1887 37.9668 79.491 37.4307C79.7964 36.8946 79.949 36.2746 79.949 35.5678C79.949 34.7502 79.7574 34.0464 79.3713 33.4564C78.9882 32.8664 78.4524 32.4501 77.7699 32.2105M78.7876 37.221C78.4853 37.6703 78.0693 37.9787 77.5395 38.1524C77.1623 38.2722 76.4888 38.3351 75.516 38.3351H74.7019V32.6478H75.1988C76.2105 32.6478 76.9348 32.7137 77.3748 32.8484C77.9615 33.0281 78.4195 33.3576 78.7487 33.8397C79.078 34.3219 79.2426 34.9029 79.2426 35.5828C79.2426 36.2626 79.09 36.7778 78.7876 37.227M93.9693 31.9559L90.6438 39H91.428L92.5235 36.6819H95.5557L96.6632 39H97.4235L94.1399 31.9559H93.9663H93.9693ZM92.8468 36.0021L94.0531 33.4534L95.2534 36.0021H92.8468ZM113.309 31.9559V37.3558L108.624 31.9559H108.471V39H109.199V33.666L113.847 39H114.006V31.9559H113.312H113.309Z" fill="#00AE84"/>
<path d="M60.5441 3.07579C60.5441 4.77392 59.1672 6.15159 57.47 6.15159C55.7729 6.15159 54.396 4.77392 54.396 3.07579C54.396 1.37767 55.7729 0 57.47 0C59.1672 0 60.5441 1.37767 60.5441 3.07579Z" fill="#00AE84"/>
</g>
<defs>
<radialGradient id="paint0_radial_64_6364" cx="0" cy="0" r="1" gradientUnits="userSpaceOnUse" gradientTransform="translate(18.605 18.9515) scale(17.7828 17.7929)">
<stop stop-color="#00AE84"/>
<stop offset="0.43" stop-color="#14866B"/>
<stop offset="0.79" stop-color="#226D5B"/>
<stop offset="1" stop-color="#276456"/>
</radialGradient>
<clipPath id="clip0_64_6364">
<rect width="114" height="39" fill="white"/>
</clipPath>
</defs>
</svg>
